<?xml version="1.0" standalone="no"?>
<!DOCTYPE svg PUBLIC "-//W3C//DTD SVG 20010904//EN"
 "http://www.w3.org/TR/2001/REC-SVG-20010904/DTD/svg10.dtd">
<svg version="1.0" xmlns="http://www.w3.org/2000/svg"
 width="2960.000000pt" height="1408.000000pt" viewBox="330 0 2630 1408"
 preserveAspectRatio="xMidYMid meet">

<g transform="translate(0.000000,1408.000000) scale(0.100000,-0.100000)"
fill="#472212" stroke="none">
<path d="M12437 11185 c-85 -23 -160 -68 -228 -136 -65 -64 -71 -75 -337 -605
-437 -873 -1036 -2104 -1159 -2384 -50 -113 -55 -130 -50 -177 l5 -51 -166
-145 c-92 -79 -282 -243 -422 -363 -1136 -976 -1793 -1653 -2232 -2299 -304
-448 -467 -853 -524 -1305 -31 -248 -8 -505 67 -735 75 -232 191 -417 372
-592 222 -214 493 -355 817 -424 151 -33 439 -33 587 -1 125 27 252 71 357
124 455 228 788 621 1046 1231 127 303 294 936 400 1522 122 680 228 1426 325
2289 20 176 38 323 41 328 3 4 11 8 19 8 40 0 68 28 125 127 88 151 413 733
510 913 46 85 131 243 190 350 184 335 294 543 661 1250 210 406 206 398 218
464 42 233 -37 428 -222 547 -84 55 -170 79 -271 78 -44 0 -103 -7 -129 -14z
m197 -325 c12 -4 37 -20 55 -35 107 -91 98 -268 -18 -350 -35 -25 -54 -30
-114 -33 -68 -4 -75 -2 -122 30 -129 87 -134 273 -8 362 62 43 137 53 207 26z
m-2131 -3452 c-16 -21 -344 -430 -662 -827 -298 -372 -648 -830 -847 -1111
-699 -983 -1090 -1780 -1159 -2360 -23 -190 -18 -396 12 -495 6 -20 6 -20 -17
0 -42 38 -133 168 -180 258 -105 200 -145 401 -137 677 6 200 22 307 79 500
52 177 107 317 188 475 371 723 1135 1549 2510 2713 118 100 216 182 218 182
3 0 0 -6 -5 -12z m151 -224 c-42 -87 -384 -775 -761 -1529 -377 -753 -838
-1678 -1023 -2055 -185 -377 -364 -732 -397 -789 -61 -106 -219 -337 -273
-401 l-30 -35 -21 25 c-30 37 -84 156 -104 230 -26 100 -32 348 -11 485 66
426 297 963 674 1565 396 633 804 1185 1563 2116 332 408 453 553 457 550 1
-2 -32 -74 -74 -162z m186 -195 c-389 -1420 -688 -2323 -1030 -3113 -209 -484
-446 -905 -653 -1161 -94 -117 -264 -277 -354 -335 -87 -56 -206 -106 -290
-121 -60 -11 -153 -3 -153 13 0 5 19 35 43 66 162 212 286 435 582 1043 142
294 630 1274 1082 2178 453 905 823 1652 824 1660 0 9 3 11 5 5 3 -7 -23 -112
-56 -235z m230 -94 c-115 -1010 -285 -2064 -425 -2641 -159 -653 -316 -1060
-533 -1374 -267 -389 -604 -634 -984 -716 -84 -18 -318 -31 -318 -18 0 5 27
24 60 42 183 100 432 358 606 627 342 527 657 1238 995 2245 179 531 289 899
524 1750 48 173 90 323 93 333 13 47 9 -10 -18 -248z"/>
<path d="M7825 10784 c-175 -24 -310 -66 -466 -144 -548 -276 -1029 -878
-1215 -1524 -126 -438 -145 -821 -59 -1239 48 -235 165 -532 280 -713 129
-202 384 -452 440 -431 7 3 16 21 19 39 81 526 153 811 303 1193 79 199 145
335 374 767 222 417 331 646 408 850 127 342 211 745 214 1038 l2 134 -54 12
c-61 14 -201 24 -246 18z"/>
<path d="M8376 10513 c-61 -375 -165 -774 -288 -1103 -80 -215 -159 -393 -323
-730 -287 -592 -451 -993 -556 -1365 -45 -160 -102 -436 -119 -574 -15 -126
-15 -126 120 -118 374 22 758 237 1155 648 227 235 395 470 533 748 155 310
227 573 253 920 21 276 -15 601 -93 836 -40 120 -152 353 -218 450 -63 93
-177 215 -278 296 -69 56 -139 99 -160 99 -5 0 -17 -48 -26 -107z"/>
<path d="M18359 9927 c-61 -23 -104 -55 -167 -122 -96 -102 -154 -239 -169
-397 l-6 -68 105 0 105 0 6 50 c12 103 70 192 137 210 66 18 115 -5 289 -138
163 -124 210 -146 323 -150 81 -4 93 -2 153 27 87 40 156 113 205 216 47 98
70 184 70 263 0 94 3 92 -115 92 l-102 0 -6 -62 c-14 -141 -60 -208 -145 -208
-59 0 -116 32 -237 134 -52 45 -125 94 -174 119 -74 37 -94 42 -160 45 -45 1
-91 -3 -112 -11z"/>
<path d="M24540 9927 c-19 -5 -179 -44 -355 -86 l-320 -77 0 -94 0 -95 30 -3
c97 -8 257 -37 261 -46 2 -6 3 -173 2 -370 l-3 -359 -60 53 c-70 62 -193 123
-282 140 -99 20 -282 8 -370 -23 -106 -37 -184 -82 -253 -144 -231 -209 -343
-532 -327 -943 6 -158 24 -268 61 -378 79 -232 217 -402 401 -492 134 -67 277
-91 417 -71 148 21 246 70 364 183 l61 58 12 -107 c7 -59 14 -110 17 -112 2
-2 102 1 221 8 120 6 271 14 336 18 l117 6 0 91 0 91 -97 24 c-54 12 -109 30
-122 38 l-23 15 3 1320 4 1320 -30 23 c-26 19 -35 21 -65 12z m-569 -1259 c64
-29 119 -81 151 -141 22 -42 22 -43 23 -586 l0 -543 -36 -33 c-207 -187 -506
-134 -637 112 -132 250 -135 707 -6 980 50 104 151 194 259 230 63 20 179 12
246 -19z"/>
<path d="M14745 9741 c-145 -26 -259 -64 -384 -126 -370 -186 -601 -515 -682
-974 -25 -137 -30 -432 -10 -571 45 -317 168 -575 368 -775 221 -221 473 -335
811 -366 332 -30 694 60 931 231 l41 30 2 432 3 433 95 18 c52 10 105 20 118
22 21 5 22 10 22 105 l0 100 -545 0 -545 0 0 -105 c0 -67 4 -105 10 -105 21 0
285 -31 308 -35 l22 -5 0 -414 c0 -319 -3 -416 -12 -424 -26 -21 -126 -43
-218 -48 -307 -19 -575 145 -723 441 -157 315 -192 867 -80 1254 85 296 228
487 438 587 107 51 184 68 315 68 125 0 201 -13 296 -51 l61 -24 18 -82 c34
-161 86 -402 91 -419 5 -16 20 -18 142 -18 l137 0 0 318 0 317 -104 51 c-109
54 -249 104 -366 130 -113 25 -435 28 -560 5z"/>
<path d="M16800 8998 c-14 -6 -155 -59 -315 -118 l-290 -108 -3 -80 c-3 -78
-2 -82 20 -87 13 -3 73 -15 133 -28 l110 -23 8 -144 c4 -80 6 -373 5 -652 -3
-442 -5 -509 -18 -523 -9 -8 -63 -26 -120 -39 l-105 -23 -3 -92 -3 -91 531 0
530 0 0 95 0 94 -32 5 c-177 29 -275 49 -283 57 -6 6 -11 180 -13 450 l-4 440
27 77 c60 170 151 334 211 381 43 33 69 27 104 -25 97 -140 292 -163 402 -47
50 53 73 119 73 213 0 75 -3 90 -28 133 -73 124 -254 170 -419 107 -123 -46
-251 -179 -344 -355 -21 -41 -42 -75 -45 -75 -4 0 -9 92 -10 205 l-4 204 -35
30 c-39 33 -44 34 -80 19z"/>
<path d="M18502 8986 c-318 -61 -509 -204 -579 -435 -37 -123 17 -241 125
-271 49 -13 131 -13 173 1 47 16 94 63 118 119 17 40 41 158 67 327 6 40 18
44 135 50 260 14 349 -102 349 -457 l0 -115 -92 -24 c-180 -45 -431 -134 -544
-192 -141 -72 -194 -108 -264 -179 -97 -98 -140 -212 -140 -370 0 -165 40
-269 140 -364 93 -89 202 -132 364 -143 177 -11 341 54 485 193 47 46 87 84
89 84 1 0 2 -6 2 -12 0 -7 13 -40 29 -74 52 -109 150 -167 311 -180 178 -15
321 54 418 201 l33 49 -55 55 -55 55 -21 -27 c-29 -37 -71 -57 -117 -57 -74 1
-92 33 -103 188 -5 64 -7 304 -3 532 4 304 3 441 -6 513 -37 293 -163 455
-406 522 -83 23 -354 29 -453 11z m394 -1023 c-3 -21 -6 -158 -6 -304 l0 -265
-62 -46 c-98 -71 -164 -100 -239 -106 -81 -6 -129 9 -179 54 -61 55 -85 121
-85 234 0 77 4 104 22 143 58 126 172 205 417 288 141 48 140 48 132 2z"/>
<path d="M20607 8990 c-142 -24 -317 -102 -422 -189 -113 -93 -220 -248 -273
-394 -58 -159 -67 -223 -67 -447 0 -191 2 -212 28 -312 53 -206 110 -311 236
-442 125 -129 256 -205 428 -248 126 -32 381 -31 498 1 330 89 554 334 646
704 27 108 37 360 19 490 -59 439 -330 751 -722 831 -82 17 -285 20 -371 6z
m318 -249 c166 -82 251 -308 262 -697 14 -462 -79 -760 -265 -851 -50 -24 -69
-28 -147 -28 -78 0 -97 4 -146 28 -178 87 -263 310 -276 722 -12 383 48 628
187 766 45 46 70 62 121 78 91 30 178 24 264 -18z"/>
<path d="M25844 8986 c-358 -68 -622 -314 -728 -678 -61 -211 -59 -510 5 -723
48 -161 158 -340 270 -438 206 -183 536 -258 841 -192 203 45 385 187 530 415
l36 56 -69 57 -69 57 -82 -82 c-129 -129 -242 -178 -415 -178 -106 0 -171 14
-261 57 -177 84 -294 286 -318 548 l-7 75 590 0 591 0 6 28 c15 61 19 293 7
368 -42 257 -180 459 -382 558 -52 25 -121 53 -154 62 -82 22 -299 27 -391 10z
m297 -242 c93 -51 150 -143 171 -278 13 -88 1 -184 -30 -226 -42 -57 -59 -60
-395 -60 l-308 0 6 58 c22 176 94 359 174 441 75 76 145 102 258 96 55 -3 84
-10 124 -31z"/>
<path d="M4330 7509 c-175 -12 -355 -61 -515 -140 -100 -49 -250 -153 -268
-185 -12 -21 -11 -22 203 -185 561 -426 829 -692 1357 -1345 581 -720 993
-1102 1552 -1441 57 -35 107 -63 112 -63 12 0 64 114 89 195 132 429 115 1007
-42 1412 -76 198 -230 470 -373 661 -97 130 -351 387 -500 506 -431 343 -919
555 -1344 582 -156 10 -175 10 -271 3z"/>
<path d="M3304 6908 c-39 -61 -109 -229 -138 -330 -76 -263 -74 -606 5 -923
91 -365 238 -666 481 -988 206 -273 468 -521 751 -710 270 -180 668 -338 992
-393 142 -25 421 -25 535 -1 249 53 432 142 610 299 51 44 53 48 37 65 -9 10
-53 41 -97 68 -418 259 -710 485 -980 761 -171 175 -330 369 -645 784 -115
151 -240 313 -279 360 -285 345 -538 588 -818 787 -125 89 -399 263 -414 263
-8 0 -26 -19 -40 -42z"/>
<path d="M22378 5866 c-88 -23 -161 -93 -194 -183 -7 -21 -13 -70 -14 -109 0
-60 5 -80 31 -133 52 -105 140 -154 272 -153 56 1 77 6 128 33 118 63 180 189
148 300 -7 24 -13 46 -13 49 -1 3 -14 31 -31 62 -28 54 -33 58 -77 68 -26 5
-72 23 -100 39 -69 37 -93 42 -150 27z"/>
<path d="M13640 5560 c0 -71 4 -102 13 -105 6 -2 75 -13 151 -25 77 -11 144
-24 150 -30 11 -11 18 -1568 9 -1992 l-4 -196 -112 -20 c-62 -12 -133 -23
-159 -27 l-48 -6 0 -100 0 -99 564 0 c310 0 571 -3 580 -6 14 -5 16 7 16 98
l0 104 -77 12 c-43 7 -117 19 -165 28 l-88 16 0 490 0 490 153 -4 c174 -6 233
-22 307 -85 95 -82 142 -205 190 -504 61 -379 78 -442 147 -542 40 -58 131
-113 219 -133 100 -22 354 -15 459 13 l70 18 3 102 3 102 -33 5 c-18 3 -64 10
-103 16 -107 17 -131 27 -148 63 -17 36 -36 117 -67 287 -65 353 -118 490
-234 606 -56 57 -90 81 -166 117 -76 36 -91 47 -75 53 186 65 284 124 381 226
118 125 168 254 167 438 0 349 -222 584 -629 667 -67 13 -185 16 -776 20
l-698 4 0 -101z m1248 -145 c183 -43 297 -161 333 -344 17 -88 7 -259 -21
-341 -45 -136 -146 -235 -288 -281 -56 -19 -97 -23 -254 -27 l-188 -4 0 506 0
506 178 0 c121 0 197 -5 240 -15z"/>
<path d="M23414 5460 c-15 -6 -24 -24 -33 -67 -8 -32 -22 -69 -32 -82 -11 -13
-19 -32 -19 -42 0 -29 -57 -241 -79 -291 -25 -60 -53 -74 -172 -88 -155 -18
-139 -3 -139 -130 l0 -110 130 0 130 0 0 -688 c0 -454 4 -708 11 -747 37 -203
198 -305 479 -305 202 0 322 46 445 170 l68 69 -41 54 c-23 30 -51 62 -62 72
-19 17 -21 17 -55 -14 -59 -52 -93 -65 -170 -65 -91 -1 -140 24 -175 85 l-25
44 0 660 0 660 233 3 233 2 -3 133 -3 132 -230 0 -230 0 4 278 4 277 -124 -1
c-68 0 -133 -4 -145 -9z"/>
<path d="M16928 4954 c-269 -48 -489 -201 -633 -439 -144 -239 -184 -617 -99
-937 85 -324 320 -566 629 -649 117 -32 365 -32 480 -1 162 45 302 131 398
246 54 65 157 218 156 233 0 4 -32 31 -72 60 l-72 52 -24 -32 c-54 -70 -153
-157 -214 -187 -148 -73 -350 -75 -493 -5 -178 87 -301 300 -321 558 l-6 77
582 0 c545 0 582 1 589 18 4 9 7 96 7 192 0 147 -4 189 -22 262 -54 212 -164
369 -325 463 -158 93 -362 125 -560 89z m269 -235 c51 -24 118 -96 143 -152
44 -100 51 -268 14 -344 -35 -71 -48 -73 -393 -73 l-304 0 7 75 c25 272 160
478 339 515 58 12 144 2 194 -21z"/>
<path d="M18925 4960 c-426 -67 -730 -390 -795 -845 -14 -104 -12 -307 5 -415
19 -113 63 -249 111 -341 106 -202 328 -373 559 -431 74 -18 117 -22 240 -21
177 0 259 18 388 85 110 56 249 195 325 323 28 49 52 94 52 100 0 7 -32 34
-71 61 l-72 49 -21 -30 c-40 -56 -129 -145 -175 -175 -97 -61 -213 -85 -350
-69 -155 17 -275 93 -366 229 -110 166 -156 384 -134 638 26 295 168 542 350
608 88 31 241 17 288 -27 16 -15 21 -32 21 -68 0 -87 30 -233 61 -298 22 -46
41 -69 76 -92 114 -76 270 -45 327 64 17 32 21 58 21 130 0 80 -4 98 -31 155
-79 167 -258 310 -447 355 -77 19 -282 27 -362 15z"/>
<path d="M20813 4956 c-311 -60 -561 -259 -684 -546 -64 -148 -81 -233 -86
-432 -8 -254 24 -423 111 -596 92 -182 274 -351 452 -418 121 -45 198 -57 359
-57 176 0 258 18 395 85 69 34 103 60 181 138 86 85 210 249 208 275 0 12
-116 96 -140 102 -9 3 -23 -7 -34 -23 -59 -90 -173 -176 -287 -215 -90 -31
-265 -31 -357 0 -119 41 -217 123 -282 236 -52 89 -109 302 -109 406 0 19 14
19 584 19 546 0 584 1 591 17 3 10 9 70 12 133 22 446 -179 769 -536 861 -100
26 -282 33 -378 15z m254 -232 c82 -33 149 -115 178 -217 24 -85 23 -222 -3
-281 -34 -75 -41 -76 -396 -76 l-304 0 4 43 c14 130 46 253 89 337 31 61 107
144 161 176 74 43 191 51 271 18z"/>
<path d="M24992 4960 c-86 -12 -181 -44 -277 -93 -107 -55 -238 -183 -283
-277 -34 -69 -49 -155 -38 -214 16 -82 109 -142 221 -140 151 2 221 105 248
362 l12 116 40 12 c22 7 81 13 132 13 113 1 182 -21 235 -76 49 -52 68 -93 84
-183 15 -88 21 -288 8 -300 -5 -4 -83 -31 -174 -60 -178 -56 -409 -144 -505
-193 -94 -47 -166 -99 -232 -170 -95 -102 -133 -202 -133 -352 0 -155 45 -268
144 -363 106 -102 202 -136 381 -135 206 1 337 58 512 226 24 23 44 39 46 36
2 -2 9 -22 15 -45 26 -89 111 -168 216 -199 64 -19 196 -19 269 0 112 29 185
79 248 171 16 24 29 44 29 46 0 2 -25 30 -55 61 l-55 56 -16 -24 c-35 -53
-116 -81 -164 -55 -37 20 -40 57 -40 582 0 283 -5 552 -10 606 -22 204 -69
326 -164 429 -107 116 -239 162 -481 168 -82 2 -179 0 -213 -5z m391 -1293 l3
-299 -68 -53 c-109 -86 -168 -110 -263 -110 -120 0 -188 43 -226 144 -25 67
-28 204 -5 269 36 100 135 194 274 259 85 40 276 104 279 95 1 -4 3 -141 6
-305z"/>
<path d="M22492 4940 c-17 -28 -59 -46 -304 -135 l-218 -79 0 -78 c0 -72 2
-78 23 -82 12 -3 60 -13 107 -22 47 -8 95 -22 108 -30 l22 -15 -2 -652 -3
-652 -115 -25 -115 -25 -3 -93 -3 -92 435 0 c239 0 440 2 448 5 10 4 12 28 10
98 l-3 93 -144 19 -144 18 -6 56 c-3 31 -10 92 -15 136 -13 102 -13 1220 0
1380 5 66 7 137 3 158 -5 34 -8 37 -37 37 -20 0 -36 -7 -44 -20z"/>
<path d="M26900 4946 c-137 -29 -291 -107 -372 -188 -67 -67 -120 -170 -143
-278 -27 -123 -18 -420 14 -502 23 -59 200 -158 436 -243 185 -67 238 -89 287
-122 24 -16 61 -35 83 -42 106 -37 156 -102 159 -205 1 -52 -3 -69 -26 -103
-37 -56 -86 -84 -166 -94 -37 -4 -89 -15 -117 -25 -77 -26 -231 -24 -324 4
-40 13 -83 33 -96 46 -12 12 -26 21 -31 19 -6 -2 -19 5 -31 16 -11 11 -23 17
-26 14 -8 -7 -15 41 -30 192 l-13 130 -34 5 c-19 3 -66 4 -103 2 -52 -3 -67
-7 -63 -17 3 -8 -3 -19 -12 -27 -9 -7 -13 -8 -9 -2 11 19 -20 24 -36 6 -19
-23 -41 -179 -33 -241 8 -66 22 -100 54 -134 14 -15 37 -51 51 -80 25 -49 30
-54 96 -79 228 -88 521 -117 735 -73 84 18 338 116 445 172 129 68 192 228
181 458 -9 200 -53 318 -145 392 -112 89 -186 125 -413 200 -121 40 -249 88
-284 108 -75 42 -174 135 -174 162 0 23 42 163 63 213 20 47 61 86 104 101 59
19 286 7 354 -20 64 -24 72 -37 89 -141 6 -36 18 -100 27 -142 l16 -78 132 0
132 0 6 204 c4 113 8 210 9 217 4 14 -257 131 -357 160 -91 27 -338 35 -435
15z"/>
</g>
</svg>
